<svg width="57" height="47" viewBox="0 0 57 47" fill="none" xmlns="http://www.w3.org/2000/svg">
<g clip-path="url(#clip0_2_369)">
<path d="M42.9313 10.1756C44.3542 9.75423 45.8559 9.67021 47.3168 9.93024C49.4235 10.3023 51.3291 11.4112 52.6935 13.0589C55.6941 16.6271 56.6891 20.7904 56.1594 25.3497C55.9741 26.9449 55.223 28.3566 54.3175 29.6651C52.9207 31.6516 51.2357 33.4193 49.3182 34.9099C48.1332 35.8372 46.7946 36.549 45.3631 37.0132C45.0046 37.1326 44.6493 37.2604 44.3003 37.3825C44.8564 39.5836 44.3428 40.1955 42.1412 40.0453C41.6809 40.0138 41.218 39.9844 40.7574 39.9963C39.8837 40.0188 39.0504 39.9652 38.4551 38.8916C38.1389 39.5633 37.8819 40.0242 37.7026 40.5133C37.5216 41.0191 37.3783 41.538 37.2737 42.0651C36.9168 43.8038 35.831 45.0014 34.4193 45.9579C33.7846 46.3879 33.1097 46.4232 32.8461 46.0785C32.5639 45.7094 32.7206 45.1676 33.3007 44.562C33.6198 44.2282 33.9472 43.9028 34.2828 43.5852C34.993 42.9283 35.5047 42.0851 35.7597 41.1518C36.2014 39.5154 36.8842 38.0484 38.6301 37.0748C36.5777 36.2762 34.8219 34.8636 33.6027 33.0298C32.8605 33.4267 32.1923 33.7836 31.4578 34.1768C31.5874 34.5553 31.7313 34.8998 31.8233 35.2579C32.1685 36.6021 31.4272 37.5379 30.0367 37.55C29.5975 37.5541 28.9947 37.255 28.7723 37.7664C28.5317 38.3228 28.4421 38.9332 28.5128 39.5355C28.6347 40.4013 29.0138 41.2276 29.196 42.089C29.3453 42.7619 29.4099 43.451 29.3883 44.1401C29.3426 44.6351 29.1942 45.1152 28.9522 45.5495C28.5265 46.3792 27.9552 46.6837 27.4251 46.4718C26.9126 46.2674 26.7507 45.6905 27.1249 44.7502C27.5673 43.6399 27.4427 42.5727 27.151 41.4754C26.8035 40.1685 26.5193 38.8533 27.0408 37.45C26.7691 37.3483 26.5271 37.2718 26.2968 37.1691C25.3298 36.7373 25.182 35.8946 25.9674 35.1675C26.3292 34.8324 26.7484 34.5591 27.1285 34.2679L21.6634 31.8902L18.2915 37.351C18.6356 38.0005 19.0055 38.5655 19.7308 38.906C20.4619 39.2487 20.8278 39.9614 21.0152 40.7366C21.1101 41.1098 21.1739 41.4901 21.2057 41.8737C21.2367 42.3744 21.3804 42.8617 21.6261 43.2989C21.8717 43.7361 22.213 44.1124 22.6243 44.3991C23.0704 44.7626 23.4867 45.1609 23.8697 45.5902C24.2446 45.9838 24.1063 46.4221 23.5719 46.4792C23.1901 46.5195 22.804 46.4905 22.4325 46.3938C21.5781 46.1507 20.8216 45.6453 20.2698 44.9492C19.718 44.2532 19.3988 43.4013 19.3573 42.514C19.328 41.8618 19.2626 41.2123 19.1922 40.5639C19.144 40.4085 19.0724 40.2614 18.9798 40.1276C17.5342 40.9557 15.9887 40.778 14.4875 40.6586C13.273 40.5619 12.9305 39.6216 13.5937 38.5652C13.6947 38.4042 13.8175 38.2569 13.9866 38.0268C13.7365 37.8818 13.5301 37.7394 13.3056 37.6357C12.0489 37.0555 10.7721 36.5173 9.53113 35.9058C1.9275 32.159 -0.570018 24.2945 1.28765 17.141C1.95403 14.5742 3.18965 12.3407 5.18496 10.5964C7.57452 8.5073 10.3147 7.51709 13.5094 8.36001C14.0966 8.51497 14.6542 8.78302 15.3048 9.02906C15.4553 8.72657 15.6113 8.43357 15.7496 8.13221C17.4006 4.53651 20.0731 2.10935 23.9005 1.00284C26.3996 0.280013 28.9293 -0.0591013 31.541 0.223597C35.9925 0.705557 39.2022 3.00603 41.3689 6.83787C41.9485 7.87083 42.3798 8.98726 42.9313 10.1756ZM41.0176 17.1145C40.9798 12.9612 40.2597 10.2588 38.8741 7.76603C37.3284 4.98559 35.0081 3.25299 31.7743 2.80814C29.0201 2.42918 26.4109 2.92889 23.8641 3.91012C21.9805 4.64377 20.3994 5.99159 19.3768 7.73544C17.9206 10.1115 17.3963 12.7323 17.5169 15.4747C17.65 18.5046 18.5028 21.3716 19.6156 24.1831C21.2383 28.2822 24.0406 31.0475 28.3245 32.2669C28.779 32.3965 29.1182 32.4052 29.5007 32.1367C31.8948 30.4565 34.3527 28.8556 36.3541 26.6849C39.1824 23.6182 41.1139 20.1625 41.0176 17.1142V17.1145ZM14.7022 11.2203C13.9926 10.7984 13.1884 10.5614 12.3633 10.5312C9.98745 10.47 8.14039 11.5345 6.64841 13.2842C4.46958 15.8393 3.88032 18.9267 3.98805 22.1398C4.12839 26.3271 5.69596 29.9048 9.34248 32.2064C11.5364 33.5911 13.9279 34.663 16.2588 35.8903C17.7825 34.0927 19.2828 32.4608 20.2354 30.4664C15.6713 24.5553 13.9412 18.5491 14.7022 11.2203ZM35.3014 31.8628C35.5746 32.1745 35.8189 32.4657 36.0757 32.7439C37.0988 33.8489 38.425 34.4487 39.785 35.0138C40.315 35.234 40.7948 35.324 41.3368 35.1263C41.6651 35.017 41.9995 34.9268 42.3385 34.8564C45.32 34.1781 48.0336 32.6308 50.136 30.4104C52.5239 27.9061 54.1592 25.1878 53.6176 21.5366C53.2196 18.8536 52.4482 16.3479 50.5651 14.3236C48.6509 12.2647 46.2659 11.6699 43.4908 12.171C43.6123 13.2932 43.7715 14.314 43.8255 15.3404C44.0936 20.4476 42.1543 24.7326 38.8001 28.4448C37.748 29.6082 36.5552 30.6454 35.3014 31.8628Z" fill="white"/>
</g>
<defs>
<clipPath id="clip0_2_369">
<rect width="56" height="46.5542" fill="white" transform="translate(0.5 -0.000732422)"/>
</clipPath>
</defs>
</svg>
