<svg width="49" height="50" viewBox="0 0 49 50" fill="none" xmlns="http://www.w3.org/2000/svg">
<path d="M16.2814 42.5272C16.2814 43.7696 16.3277 44.8519 16.2713 45.9291C16.1718 47.8309 15.4618 48.6385 13.5659 48.9147C12.4958 49.0684 11.4141 49.1261 10.3337 49.0874C8.63949 49.0283 7.91868 48.3005 7.89605 46.6034C7.87988 45.1039 7.9422 43.6045 8.08275 42.1114C8.15085 41.372 7.99893 40.8936 7.3967 40.4275C6.12875 39.4452 5.64596 38.0304 5.52736 36.4841C5.23127 32.6262 4.93183 28.7683 4.68918 24.9068C4.64601 24.2174 4.44338 24.0477 3.77913 24.0267C1.90455 23.9676 1.06365 23.2323 0.925355 21.389C0.709315 18.5073 0.492648 15.6163 0.500191 12.7298C0.506268 10.4506 1.32391 9.68448 3.57148 9.43491C4.38534 9.34439 4.64664 9.0481 4.62862 8.27257C4.62306 7.53958 4.66963 6.80713 4.76798 6.08075C5.11142 3.22299 7.052 1.83978 9.54076 0.988818C12.5012 -0.0249562 15.5723 -0.00190473 18.648 0.0108775C23.2877 0.0303651 27.9276 -0.0153207 32.5674 0.00563375C34.2043 0.0129678 35.8492 0.0532152 37.4761 0.220012C41.1959 0.601383 43.1034 2.51325 43.6753 6.28861C43.8762 7.61544 43.8762 7.61544 45.1601 7.73447C46.6003 7.86732 47.5194 8.54939 47.6711 9.94537C48.0273 13.2333 48.3942 16.5309 48.4969 19.8325C48.5784 22.4545 47.0634 23.8457 44.43 24.0328C43.2589 24.1166 43.3501 23.928 43.2824 25.3142C43.1074 28.8974 42.9869 32.4881 42.6315 36.0548C42.4371 38.0073 41.7242 39.854 39.8788 41.0059C39.6667 41.1383 39.6063 41.6586 39.6256 41.9907C39.6927 43.2061 39.8857 44.4179 39.9131 45.6334C39.9517 47.3308 39.3199 48.0323 37.6442 48.3317C36.9579 48.4543 36.2677 48.5558 35.5772 48.6517C33.6901 48.9143 32.5447 48.0585 32.345 46.1498C32.2596 45.1425 32.233 44.1312 32.2654 43.1208C32.2721 42.6095 32.2097 42.3939 31.5909 42.4025C26.7152 42.4708 21.8389 42.4922 16.9626 42.5282C16.7633 42.5284 16.563 42.5272 16.2814 42.5272ZM25.4292 3.31854V3.33552C22.3586 3.33552 19.2871 3.29487 16.2172 3.34872C13.8439 3.39063 11.4916 3.57921 9.27903 4.62839C8.14456 5.16671 7.67582 5.97933 7.66178 7.17415C7.65088 8.11543 7.57796 9.05608 7.55009 9.99735C7.43798 13.7934 7.04719 17.5774 7.3131 21.3894C7.58215 25.2498 7.66534 29.1231 7.85078 32.9896C7.90568 34.1375 8.00668 35.2845 8.12968 36.4261C8.28873 37.9017 9.11601 38.9044 10.534 39.2667C11.9811 39.6363 13.4624 40.0254 14.942 40.0866C19.0195 40.2543 23.1075 40.3932 27.1842 40.2809C30.3828 40.1926 33.5683 39.683 36.7643 39.4188C38.6892 39.2598 39.6656 38.171 39.88 36.3706C40.1474 34.1232 40.4611 31.8654 40.482 29.6079C40.5357 23.8151 40.6526 18.0325 41.0752 12.2493C41.2274 10.1656 40.8148 8.02218 40.5017 5.92988C40.3182 4.70258 39.445 3.89605 38.1716 3.69153C37.1444 3.49811 36.1045 3.37904 35.0601 3.33529C31.8505 3.2894 28.6392 3.31854 25.4288 3.31854H25.4292ZM43.5422 21.1656C45.5381 21.0663 45.7973 20.8391 45.7579 18.9025C45.7026 16.1871 45.5767 13.4728 45.4998 10.7576C45.4832 10.1683 45.2839 9.94412 44.6704 10.074C44.1465 10.1849 43.9382 10.4045 43.9139 10.9751C43.8276 12.9925 43.6394 15.0056 43.5535 17.0231C43.4944 18.4005 43.5418 19.7841 43.5418 21.1656H43.5422ZM4.73549 10.9868C2.95772 11.2573 2.68489 11.4218 2.73078 12.6227C2.83555 15.369 3.04803 18.1113 3.21483 20.8553C3.24961 21.4263 3.46377 21.7519 4.12048 21.7033C4.79374 21.6532 4.65691 21.1809 4.66404 20.7916C4.69658 19.0151 4.7197 17.2383 4.73339 15.4614C4.7445 14.0065 4.73549 12.5515 4.73549 10.9868ZM10.1449 41.9233C10.1449 43.2717 10.1403 44.5522 10.1474 45.8327C10.1499 46.3067 10.2167 46.854 10.8498 46.7227C11.7569 46.5341 12.8924 47.1715 13.5481 46.0255C13.5618 45.9933 13.5682 45.9584 13.5667 45.9235C13.6068 44.9177 13.6776 43.9118 13.6575 42.9077C13.6535 42.7172 13.3121 42.4134 13.0856 42.3683C12.1422 42.1808 11.183 42.0725 10.1453 41.923L10.1449 41.9233ZM34.2735 42.2062C34.3738 43.1717 34.4377 44.0698 34.5668 44.9587C34.7554 46.2545 34.7749 46.2531 36.0931 46.0318C36.5193 45.9603 37.083 46.0576 37.0948 45.3841C37.1144 44.2417 37.1 43.0986 37.1 41.8372L34.2735 42.2062Z" fill="white"/>
<path d="M24.8814 23.497C20.6297 23.3618 16.3756 23.2759 12.1273 23.0697C10.106 22.9716 9.19577 22.1179 8.98182 20.1061C8.58683 16.3867 8.55959 12.6489 9.15093 8.94579C9.32353 7.98524 9.71147 7.07627 10.2856 6.2871C10.6668 5.75905 11.4435 5.34771 12.1067 5.22429C14.019 4.86806 15.9588 4.52335 17.8965 4.4653C22.3583 4.3312 26.8262 4.31506 31.2901 4.36703C32.8801 4.38547 34.4781 4.67276 36.0505 4.95816C37.6525 5.2488 38.5242 6.3447 38.6851 7.93368C38.8712 9.77075 38.9684 11.6168 39.1019 13.4589C39.2153 15.023 39.3636 16.586 39.4227 18.1527C39.4685 19.1254 39.4273 20.1001 39.2995 21.0654C39.1262 22.2785 38.4404 22.9048 37.2265 23.0781C36.5349 23.1648 35.8382 23.2036 35.1413 23.1944C31.7226 23.2055 28.3039 23.1994 24.8854 23.1994C24.8841 23.2986 24.8828 23.3978 24.8814 23.497ZM24.784 20.8973L24.7823 20.9791C28.1971 20.8697 31.612 20.7608 35.0269 20.6526C36.7636 20.5989 36.8028 20.6029 36.738 18.8218C36.6393 16.1057 36.4866 13.3913 36.3424 10.677C36.3055 9.98303 36.1915 9.29406 36.1496 8.59963C36.101 7.79603 35.6698 7.4134 34.8985 7.34236C33.4425 7.20784 31.9868 6.94924 30.5313 6.95154C26.0693 6.95888 21.6048 7.00772 17.1467 7.16467C15.5973 7.21915 14.053 7.59863 12.5242 7.91546C12.3115 7.96559 12.1116 8.05919 11.9369 8.19039C11.7622 8.32159 11.6166 8.48753 11.5091 8.67777C11.2005 9.39881 10.9069 10.206 10.9224 10.9717C10.9781 13.7923 11.1361 16.6122 11.3103 19.4291C11.3861 20.6549 11.5494 20.8628 12.7616 20.8783C16.7683 20.93 20.7762 20.8986 24.784 20.8986V20.8973Z" fill="white"/>
<path d="M23.5735 29.7783C21.833 29.7783 20.0928 29.7907 18.3525 29.7743C17.1047 29.7624 16.4544 29.333 16.4679 28.5835C16.4806 27.8692 17.0083 27.4781 18.2813 27.427C21.0282 27.3162 23.7774 27.2682 26.5254 27.1814C27.3239 27.1563 28.1206 27.0599 28.919 27.0482C29.3265 27.0423 29.8165 27.0318 30.1236 27.2391C30.4832 27.4817 30.8753 27.9467 30.9008 28.3383C30.891 28.5692 30.8294 28.795 30.7206 28.9989C30.6118 29.2028 30.4586 29.3797 30.2722 29.5164C29.8361 29.7917 29.2268 29.8762 28.6882 29.89C26.9842 29.9336 25.2786 29.9061 23.5735 29.9061V29.7783Z" fill="white"/>
<path d="M23.7389 33.3499C22.5891 33.3499 21.439 33.3673 20.2896 33.3432C19.614 33.3291 19.0001 33.1085 18.9504 32.3164C18.8989 31.4923 19.5403 31.222 20.1888 31.1933C22.5556 31.0885 24.9245 31.0405 27.2936 30.9871C27.5389 30.9618 27.7854 31.0196 27.9939 31.1511C28.3277 31.4497 28.799 31.8252 28.8139 32.1857C28.8288 32.5461 28.4308 33.1427 28.0859 33.2602C27.4154 33.4884 26.6579 33.483 25.9337 33.52C25.2038 33.5571 24.4704 33.5282 23.7387 33.5282L23.7389 33.3499Z" fill="white"/>
<path d="M36.9581 31.3412C35.6499 31.3439 34.5295 30.2981 34.5483 29.0915C34.5655 27.969 35.6325 26.9795 36.8441 26.9625C37.4442 26.9645 38.0193 27.2034 38.4442 27.6272C38.869 28.051 39.1093 28.6255 39.1128 29.2256C39.1023 29.7902 38.8707 30.3281 38.4678 30.7237C38.0649 31.1193 37.5228 31.341 36.9581 31.3412Z" fill="white"/>
<path d="M9.67826 29.693C9.67934 29.4051 9.74039 29.1206 9.85755 28.8577C9.9747 28.5947 10.1454 28.3591 10.3587 28.1657C10.572 27.9724 10.8233 27.8257 11.0964 27.7349C11.3696 27.6441 11.6587 27.6112 11.9453 27.6384C13.1816 27.7105 14.2293 28.7517 14.1541 29.8321C14.076 30.9408 12.8493 31.9791 11.6815 31.9255C11.1205 31.8931 10.5951 31.6403 10.2198 31.2221C9.84449 30.8039 9.64984 30.2542 9.67826 29.693Z" fill="white"/>
</svg>
