<svg width="24" height="24" viewBox="0 0 24 24" fill="none" xmlns="http://www.w3.org/2000/svg">
<rect width="24" height="24" rx="6" fill="url(#paint0_radial_2_303)"/>
<rect width="24" height="24" rx="6" fill="url(#paint1_radial_2_303)"/>
<rect width="24" height="24" rx="6" fill="url(#paint2_radial_2_303)"/>
<path d="M18 7.28573C18 7.99581 17.4244 8.57145 16.7143 8.57145C16.0042 8.57145 15.4286 7.99581 15.4286 7.28573C15.4286 6.57565 16.0042 6.00002 16.7143 6.00002C17.4244 6.00002 18 6.57565 18 7.28573Z" fill="white"/>
<path fill-rule="evenodd" clip-rule="evenodd" d="M12 16.2857C14.3669 16.2857 16.2857 14.367 16.2857 12C16.2857 9.63308 14.3669 7.7143 12 7.7143C9.63307 7.7143 7.71429 9.63308 7.71429 12C7.71429 14.367 9.63307 16.2857 12 16.2857ZM12 14.5714C13.4202 14.5714 14.5714 13.4202 14.5714 12C14.5714 10.5799 13.4202 9.42859 12 9.42859C10.5798 9.42859 9.42857 10.5799 9.42857 12C9.42857 13.4202 10.5798 14.5714 12 14.5714Z" fill="white"/>
<path fill-rule="evenodd" clip-rule="evenodd" d="M3.42857 11.6572C3.42857 8.77689 3.42857 7.33676 3.98911 6.23664C4.48217 5.26895 5.26893 4.48219 6.23662 3.98913C7.33674 3.42859 8.77687 3.42859 11.6571 3.42859H12.3429C15.2231 3.42859 16.6633 3.42859 17.7634 3.98913C18.7311 4.48219 19.5178 5.26895 20.0109 6.23664C20.5714 7.33676 20.5714 8.77689 20.5714 11.6572V12.3429C20.5714 15.2231 20.5714 16.6633 20.0109 17.7634C19.5178 18.7311 18.7311 19.5178 17.7634 20.0109C16.6633 20.5714 15.2231 20.5714 12.3429 20.5714H11.6571C8.77687 20.5714 7.33674 20.5714 6.23662 20.0109C5.26893 19.5178 4.48217 18.7311 3.98911 17.7634C3.42857 16.6633 3.42857 15.2231 3.42857 12.3429V11.6572ZM11.6571 5.14287H12.3429C13.8113 5.14287 14.8095 5.14421 15.5811 5.20725C16.3326 5.26865 16.717 5.37996 16.9851 5.51657C17.6302 5.84527 18.1547 6.36978 18.4835 7.01491C18.6201 7.28302 18.7314 7.66737 18.7928 8.41894C18.8558 9.19052 18.8571 10.1887 18.8571 11.6572V12.3429C18.8571 13.8113 18.8558 14.8095 18.7928 15.5811C18.7314 16.3327 18.6201 16.717 18.4835 16.9851C18.1547 17.6303 17.6302 18.1548 16.9851 18.4835C16.717 18.6201 16.3326 18.7314 15.5811 18.7928C14.8095 18.8558 13.8113 18.8572 12.3429 18.8572H11.6571C10.1887 18.8572 9.19051 18.8558 8.41892 18.7928C7.66735 18.7314 7.28301 18.6201 7.01489 18.4835C6.36976 18.1548 5.84526 17.6303 5.51655 16.9851C5.37994 16.717 5.26864 16.3327 5.20723 15.5811C5.14419 14.8095 5.14286 13.8113 5.14286 12.3429V11.6572C5.14286 10.1887 5.14419 9.19052 5.20723 8.41894C5.26864 7.66737 5.37994 7.28302 5.51655 7.01491C5.84526 6.36978 6.36976 5.84527 7.01489 5.51657C7.28301 5.37996 7.66735 5.26865 8.41892 5.20725C9.19051 5.14421 10.1887 5.14287 11.6571 5.14287Z" fill="white"/>
<defs>
<radialGradient id="paint0_radial_2_303" cx="0" cy="0" r="1" gradientUnits="userSpaceOnUse" gradientTransform="translate(8.57143 18) rotate(-55.3758) scale(21.8739)">
<stop stop-color="#B13589"/>
<stop offset="0.79309" stop-color="#C62F94"/>
<stop offset="1" stop-color="#8A3AC8"/>
</radialGradient>
<radialGradient id="paint1_radial_2_303" cx="0" cy="0" r="1" gradientUnits="userSpaceOnUse" gradientTransform="translate(7.71429 24.8571) rotate(-65.1363) scale(19.3665)">
<stop stop-color="#E0E8B7"/>
<stop offset="0.444662" stop-color="#FB8A2E"/>
<stop offset="0.71474" stop-color="#E2425C"/>
<stop offset="1" stop-color="#E2425C" stop-opacity="0"/>
</radialGradient>
<radialGradient id="paint2_radial_2_303" cx="0" cy="0" r="1" gradientUnits="userSpaceOnUse" gradientTransform="translate(-1.28571 0.857143) rotate(-8.1301) scale(33.335 7.13002)">
<stop offset="0.156701" stop-color="#406ADC"/>
<stop offset="0.467799" stop-color="#6A45BE"/>
<stop offset="1" stop-color="#6A45BE" stop-opacity="0"/>
</radialGradient>
</defs>
</svg>
