<svg width="24" height="24" viewBox="0 0 24 24" fill="none" xmlns="http://www.w3.org/2000/svg">
<rect width="24" height="24" rx="12" fill="#1275B1"/>
<path d="M9.10162 6.59324C9.10162 7.39428 8.4073 8.04365 7.55081 8.04365C6.69432 8.04365 6 7.39428 6 6.59324C6 5.79219 6.69432 5.14282 7.55081 5.14282C8.4073 5.14282 9.10162 5.79219 9.10162 6.59324Z" fill="white"/>
<path d="M6.21208 9.10976H8.86303V17.1428H6.21208V9.10976Z" fill="white"/>
<path d="M13.1311 9.10976H10.4801V17.1428H13.1311C13.1311 17.1428 13.1311 14.6139 13.1311 13.0327C13.1311 12.0836 13.4551 11.1304 14.7482 11.1304C16.2094 11.1304 16.2006 12.3724 16.1938 13.3346C16.1849 14.5923 16.2062 15.8758 16.2062 17.1428H18.8571V12.9032C18.8347 10.196 18.1293 8.94861 15.8085 8.94861C14.4303 8.94861 13.576 9.5743 13.1311 10.1404V9.10976Z" fill="white"/>
</svg>
