<svg width="47" height="42" viewBox="0 0 47 42" fill="none" xmlns="http://www.w3.org/2000/svg">
<g clip-path="url(#clip0_2_356)">
<path d="M44.1791 29.363C43.7953 29.3748 43.4016 29.3714 43.0214 29.3686C42.8732 29.3675 42.7246 29.3664 42.5759 29.366C42.5665 29.2256 42.557 29.0952 42.5482 28.9716C42.5271 28.6793 42.5088 28.4268 42.5014 28.1746C42.4829 27.5282 42.4626 26.882 42.4403 26.2359C42.3838 24.4963 42.3238 22.6977 42.321 20.9293C42.3189 19.6775 42.2699 19.516 41.0058 19.4594C40.8433 19.4523 40.6803 19.4493 40.5178 19.4457C39.8496 19.4468 39.1813 19.4468 38.5132 19.4457C34.2222 19.4445 29.782 19.443 25.4235 19.8292C25.2343 19.8424 25.0442 19.8448 24.8548 19.8365C24.7905 19.835 24.7256 19.8335 24.6598 19.8326L24.1574 11.2419C24.2355 11.2364 24.3118 11.2306 24.387 11.2249C24.6106 11.208 24.8206 11.1921 25.0316 11.1891C25.3332 11.1848 25.6324 11.1857 25.9326 11.1865C26.368 11.1878 26.8173 11.1891 27.26 11.1739C28.4422 11.1333 28.8713 10.7389 28.9001 9.66741C28.9793 6.65223 28.9872 4.16377 28.9258 1.83888C28.909 1.21097 28.755 0.771696 28.4544 0.496185C28.123 0.192217 27.605 0.0721753 26.8263 0.119287C24.608 0.251202 22.4175 0.401966 20.3637 0.546506L20.1635 0.560446C19.5534 0.589742 18.9459 0.656641 18.3442 0.760764C17.8024 0.866296 17.5074 1.24357 17.5132 1.82267C17.5243 2.90588 17.5249 4.00774 17.5255 5.07304C17.5255 6.47886 17.527 7.93274 17.5522 9.3625C17.5769 10.757 17.8312 10.9198 19.1181 11.1281C19.345 11.1622 19.5736 11.1836 19.8029 11.1921C20.4763 11.2231 21.1497 11.2509 21.8403 11.2796L22.5325 11.3084V19.9379C22.4697 19.9471 22.4073 19.9568 22.344 19.9669C22.1583 20.0003 21.9707 20.0231 21.7824 20.0351C17.3381 20.2345 12.8938 20.4299 8.44969 20.6214C8.08094 20.6374 7.71199 20.6463 7.34305 20.6553C7.03538 20.6629 6.72752 20.6702 6.41928 20.6819C5.72966 20.7077 5.34111 20.8351 5.1211 21.1084C4.90731 21.3735 4.86358 21.7792 4.97895 22.4237C5.00553 22.5726 5.03551 22.7213 5.06586 22.8696C5.11808 23.1265 5.172 23.392 5.20537 23.6541C5.4606 25.5996 5.52707 27.5652 5.40389 29.5235C5.11017 29.5235 4.82078 29.523 4.53573 29.522C3.8299 29.5205 3.14536 29.5188 2.46064 29.5256C1.40717 29.5361 0.969791 29.9255 0.84725 30.962C0.541001 33.6289 0.52974 36.3216 0.813687 38.9912C0.892302 39.7544 1.22996 40.1113 1.97934 40.2234C2.36927 40.2739 2.76317 40.2866 3.15554 40.2611C4.41564 40.2031 5.67568 40.1424 6.93565 40.0791C8.28473 40.0124 9.63374 39.9477 10.9827 39.8848C11.731 39.8507 12.2575 39.6496 12.5923 39.2701C12.9271 38.8905 13.0593 38.3467 12.9999 37.6063C12.9402 36.8604 12.8514 35.8801 12.6949 34.9103C12.4359 33.3038 12.1747 31.872 11.8969 30.5329C11.714 29.6504 11.3187 29.3228 10.4818 29.3673C9.79368 29.4035 9.09539 29.3952 8.41934 29.3871C8.15804 29.3841 7.89807 29.3809 7.64054 29.3803L6.82876 22.3759L22.8447 21.9098V28.9201C22.705 28.9293 22.5732 28.939 22.4473 28.9471C22.1357 28.9685 21.8595 28.9876 21.5829 28.9993C21.1472 29.0181 20.7114 29.0341 20.2755 29.0503C19.5001 29.079 18.6983 29.1086 17.9099 29.1532C17.5221 29.1751 17.2206 29.3326 17.1032 29.5746C17.0604 29.6694 17.0448 29.7742 17.0581 29.8772C17.0714 29.9805 17.1131 30.0779 17.1786 30.1588C17.4776 30.586 17.4685 31.0211 17.4589 31.4821C17.4568 31.5763 17.4548 31.673 17.4555 31.7687C17.4604 32.4283 17.4583 33.0878 17.4555 33.7474C17.4519 34.9069 17.4482 36.1058 17.4842 37.2848C17.5178 37.7936 17.6028 38.2979 17.7381 38.7897C17.7841 38.9816 17.8301 39.1734 17.8701 39.3652C18.0665 40.3133 18.8596 40.5167 19.4388 40.5871C19.6568 40.609 19.876 40.6165 20.0951 40.6098C20.1705 40.6098 20.2448 40.6086 20.3204 40.6098L20.6196 40.6116C23.1643 40.629 25.7093 40.6448 28.2548 40.6591C28.5185 40.6652 28.7825 40.648 29.0434 40.6075C29.5464 40.5202 29.9031 40.3135 30.1033 39.9928C30.3073 39.6666 30.3363 39.2444 30.1893 38.7381C30.1169 38.442 30.0835 38.1381 30.0901 37.8335C30.0763 37.0649 30.0701 36.296 30.0641 35.5269C30.0511 33.9398 30.0379 32.2988 29.9553 30.6872C29.8772 29.1662 29.2911 28.9228 27.9126 28.9333C27.2609 28.9373 26.6095 28.9365 25.9116 28.9354H24.9879L24.5686 21.7031L40.7817 21.2872L40.4235 29.3324H39.8076C39.3334 29.3313 38.8993 29.3302 38.4655 29.3347C38.1727 29.3379 37.8794 29.3373 37.5877 29.3377C36.8234 29.3364 36.0394 29.3377 35.2677 29.3961C34.2653 29.4732 33.9573 29.8345 34.0003 30.8832C34.0355 31.744 34.07 32.3996 34.1123 33.0091C34.1445 33.4726 34.176 33.9364 34.2065 34.4004C34.2972 35.7783 34.3911 37.2032 34.5289 38.6009C34.6697 40.0301 35.2905 40.6122 36.7424 40.677L38.3516 40.749C40.3277 40.8378 42.304 40.9239 44.2805 41.0076C44.3284 41.0095 44.3761 41.0106 44.4238 41.0106C44.6742 41.0115 44.9238 40.9831 45.1673 40.9256C45.7829 40.7748 46.1183 40.4545 46.1641 39.97C46.2617 38.9335 46.3283 37.9014 46.3611 36.9026C46.3846 36.1889 46.3814 35.4634 46.3782 34.7618C46.3769 34.4433 46.3756 34.1251 46.3765 33.8068C46.3775 33.5458 46.3835 33.2848 46.3894 33.0234C46.4024 32.4537 46.4157 31.8648 46.3743 31.287C46.2749 29.9119 45.5972 29.3208 44.1791 29.363ZM18.8945 30.7036H27.8427V38.7302L19.3877 38.9961L18.8945 30.7036ZM2.32094 31.0249H9.84307C9.93187 31.6656 10.0423 32.3188 10.1492 32.9518C10.4145 34.5219 10.6886 36.1448 10.6999 37.8703L2.64615 38.3557C2.25119 36.2434 2.15334 34.0403 2.32094 31.0249ZM27.1357 2.43495C27.0827 4.21729 27.0254 5.99964 26.966 7.82457L26.9225 9.1814L26.8659 9.18536C24.3678 9.3608 21.7846 9.54341 19.2071 9.51722L18.8549 1.89711H27.0848C27.0912 1.95214 27.098 2.00434 27.1037 2.05409C27.1244 2.17999 27.1352 2.30735 27.1357 2.43495ZM44.2196 31.2269V38.7741H36.4232L35.5296 30.8193C38.4323 30.7503 41.3361 30.8866 44.2196 31.2269Z" fill="white"/>
</g>
<defs>
<clipPath id="clip0_2_356">
<rect width="46" height="41.0818" fill="white" transform="translate(0.5)"/>
</clipPath>
</defs>
</svg>
