<svg width="20" height="18" viewBox="0 0 20 18" fill="none" xmlns="http://www.w3.org/2000/svg">
<path d="M6.29 17.8889C13.837 17.8889 17.965 11.0494 17.965 5.11888C17.965 4.92419 17.965 4.73059 17.953 4.53917C18.7562 3.90317 19.4493 3.11573 20 2.21378C19.2511 2.57692 18.4566 2.8151 17.643 2.92037C18.4996 2.35932 19.1408 1.47695 19.447 0.437468C18.6417 0.960175 17.7607 1.32861 16.842 1.52688C16.2234 0.806912 15.405 0.330096 14.5136 0.170261C13.6222 0.0104265 12.7075 0.17649 11.9111 0.642738C11.1147 1.10899 10.4811 1.84941 10.1083 2.74937C9.7355 3.64932 9.64437 4.6586 9.849 5.62093C8.21759 5.53151 6.6216 5.06783 5.16465 4.26001C3.70769 3.45218 2.42233 2.31826 1.392 0.931861C0.867318 1.91977 0.706589 3.08927 0.942536 4.20225C1.17848 5.31523 1.79337 6.28801 2.662 6.92254C2.00926 6.90187 1.37063 6.7098 0.8 6.36252V6.4194C0.800389 7.45554 1.1284 8.45965 1.7284 9.26145C2.3284 10.0633 3.16347 10.6134 4.092 10.8186C3.48781 10.9988 2.85389 11.025 2.239 10.8952C2.50116 11.7871 3.01168 12.5671 3.69913 13.1261C4.38658 13.685 5.21657 13.9949 6.073 14.0125C5.22212 14.7437 4.24779 15.2844 3.20573 15.6034C2.16367 15.9225 1.07432 16.0137 0 15.8719C1.8766 17.1892 4.06019 17.8879 6.29 17.8845" fill="#3F83F8"/>
</svg>
