<svg width="49" height="45" viewBox="0 0 49 45" fill="none" xmlns="http://www.w3.org/2000/svg">
<g clip-path="url(#clip0_2_342)">
<path d="M26.7169 0.0368042C31.8598 0.146106 35.6457 2.4157 37.9605 7.03596C39.1924 9.49444 40.3298 12.0006 41.565 14.4575C42.0665 15.4477 42.6446 16.3972 43.2938 17.297C44.2766 18.6659 43.6546 20.6656 42.0244 21.0308C41.039 21.2349 40.0424 21.3799 39.0397 21.4648C36.7965 21.6891 34.5496 21.8771 32.3042 22.0798C32.2359 22.0932 32.1661 22.0981 32.0966 22.0945C30.766 21.8718 29.6152 22.4218 28.4065 22.8561C26.5631 23.4989 24.5984 23.714 22.6603 23.485C20.3009 23.243 18.0976 22.6285 16.0672 21.382C15.7682 21.1984 15.3435 21.2076 14.9729 21.1564C13.0448 20.8913 11.1777 21.3893 9.28759 21.6138C8.6655 21.6828 8.03934 21.708 7.41374 21.6899C6.16838 21.663 5.2861 20.3831 5.99959 19.2428C7.67227 16.5696 8.62088 13.5521 10.0338 10.7561C11.6882 7.48218 14.0119 4.80267 17.114 2.83197C19.2419 1.48999 21.636 0.629384 24.1298 0.310226C24.9881 0.193379 25.8541 0.12653 26.7169 0.0368042ZM14.8999 12.2554C14.3915 15.1957 16.308 18.4793 19.1979 19.5413C20.9976 20.1975 22.9127 20.4755 24.8242 20.3584C27.8717 20.1914 30.13 18.6644 31.7514 16.1449C32.3319 15.2261 32.6384 14.16 32.6345 13.0723C29.3357 11.9711 26.3793 10.5249 24.9594 6.88222C22.4219 10.4564 18.754 11.5582 14.8999 12.2554Z" fill="white"/>
<path d="M30.3023 44.5357C25.8149 44.5357 21.3273 44.5141 16.84 44.5428C13.2262 44.5659 9.61279 44.6682 5.99937 44.6949C5.06178 44.6907 4.12584 44.6156 3.19949 44.4706C1.05494 44.1598 0.194193 42.888 0.905041 40.8359C1.39269 39.4588 2.03009 38.1395 2.8057 36.9021C6.07092 31.634 10.8193 28.1832 16.523 25.99C19.3766 24.8676 22.3959 24.2273 25.4585 24.0948C29.3799 23.9457 33.1493 24.4227 36.646 26.3391C39.7536 28.0425 42.2616 30.406 44.3459 33.2606C45.8378 35.3044 46.8663 37.5926 47.9134 39.8693C48.1585 40.4848 48.3092 41.1339 48.3609 41.7946C48.5384 43.2273 47.7954 44.1637 46.3609 44.3134C45.2915 44.4251 44.2141 44.5114 43.1398 44.5173C38.8613 44.54 34.5826 44.5265 30.3039 44.5265L30.3023 44.5357ZM3.18181 41.6445C3.2905 41.6918 3.40186 41.7326 3.51535 41.7666C4.75603 42.046 5.99429 41.8741 7.24493 41.8039C9.77591 41.6612 12.3134 41.5966 14.8489 41.5835C23.2318 41.5401 31.6152 41.5429 39.9981 41.5052C41.5251 41.4985 43.0518 41.3859 44.5782 41.3123C44.6954 41.2886 44.8076 41.2454 44.9108 41.1846C44.9254 41.0549 44.9585 40.9777 44.9372 40.9208C43.512 37.1074 41.4727 33.6995 38.3384 31.0414C36.5164 29.4963 34.5065 28.2511 32.1568 27.6814C28.6247 26.8369 24.948 26.8051 21.4021 27.5882C14.9827 28.9544 9.62963 32.1046 5.64482 37.4141C4.66652 38.7172 3.75415 40.0716 3.18181 41.6433V41.6445Z" fill="white"/>
</g>
<defs>
<clipPath id="clip0_2_342">
<rect width="48" height="44.8627" fill="white" transform="translate(0.5)"/>
</clipPath>
</defs>
</svg>
