<svg width="54" height="69" viewBox="0 0 54 69" fill="none" xmlns="http://www.w3.org/2000/svg">
<path d="M0 31.4923V53.7231H54V31.4923H40.4536L41.3814 43.1635C41.7526 46.4981 41.3814 46.8686 42.3093 46.8686H44.3505V48.5359H32.8454V47.0538C34.8866 47.0538 35.0722 47.0538 35.0722 46.6833L33.7732 28.1577L25.9794 47.6096C25.7938 47.9801 25.7938 48.3506 25.2371 48.3506C25.0515 48.3506 24.866 48.1654 24.6804 47.7949L17.0722 30.0103L15.7732 44.4603C15.5876 46.4981 15.4021 47.0538 16.8866 47.0538H18.1856V48.5359H10.9485V47.0538H12.433C12.8041 47.0538 13.1753 47.0538 13.1753 46.6833L14.2887 31.6776H0" fill="#1D3D91"/>
<path d="M0 0H54V30.9378H40.4536L40.0825 25.1948C40.0825 24.4538 40.268 24.4538 40.8247 24.4538H42.1237V22.9718H33.4021L27.0928 39.089L20.4124 22.9718H11.3196V24.4538C13.5464 24.4538 15.0309 24.2686 14.8454 27.0474L14.4742 31.123H0.185566V0" fill="#1D3D91"/>
<path d="M54 54.4675H0V68.1765H54V54.4675Z" fill="black"/>
<path d="M3.34021 57.7993H6.30928L6.86598 61.5044L7.79382 57.7993H10.5773V59.0961H10.0206V62.8012H10.5773V64.098H8.16495V62.8012H8.53609V59.0961L7.42269 64.098H6.30928L5.01031 59.0961V62.8012H5.38145V64.098H3.34021V62.8012H3.89691V59.0961H3.34021V57.7993Z" fill="white"/>
<path d="M13.3607 60.5798C13.1752 60.5798 12.9896 60.5798 12.9896 60.765C12.804 60.9503 12.804 61.506 12.804 61.6913C12.804 61.8765 12.804 62.2471 12.9896 62.4323C12.9896 62.6176 13.1752 62.8028 13.5463 62.8028C14.2886 62.8028 14.2886 61.8765 14.2886 61.6913C13.9174 61.506 13.9174 60.5798 13.3607 60.5798ZM12.0618 59.6535C12.4329 59.4682 12.9896 59.283 13.3607 59.283C14.8453 59.283 15.7731 60.2092 15.7731 61.6913C15.7731 62.0618 15.7731 62.4323 15.5875 62.6176C15.402 63.3586 15.0308 63.5439 14.6597 63.7291C14.2886 63.9144 13.9174 63.9144 13.5463 63.9144C13.3607 63.9144 13.1752 63.9144 12.9896 63.9144C12.6185 63.9144 12.2473 63.7291 11.8762 63.3586C11.3195 62.8028 11.3195 61.8765 11.3195 61.506C10.9484 61.3208 10.9484 60.2092 12.0618 59.6535Z" fill="white"/>
<path d="M20.7834 62.799H21.1546V64.0958H19.1133V61.5022C19.1133 61.317 19.1133 61.317 19.1133 61.1317C19.1133 60.9464 18.9278 60.9465 18.7422 60.9465C18.5566 60.9465 18.5566 60.9464 18.3711 61.1317C18.1855 61.317 18.1855 61.5022 18.1855 61.6875V62.9843H18.5566V64.2811H16.3298V62.9843H16.701V60.9465H16.3298V59.6497H18.1855V60.3907C18.1855 60.2054 18.3711 60.2054 18.3711 60.0202C18.5566 59.8349 18.9278 59.6497 19.4845 59.6497C20.0412 59.6497 20.2267 59.8349 20.4123 60.0202C20.7834 60.3907 20.7834 60.7612 20.7834 60.9465V62.799Z" fill="white"/>
<path d="M23.3814 58.1731V59.6551H24.1237V60.9519H23.3814V62.6192C23.3814 62.8045 23.3814 63.175 23.7526 63.175C23.9381 63.175 23.9381 63.175 23.9381 63.175V64.2865C23.567 64.2865 23.3814 64.4718 23.0103 64.4718C22.4536 64.4718 22.0825 64.2865 21.8969 64.1013C21.7113 63.916 21.7113 63.5455 21.7113 63.3603V61.1372H21.3402V59.8404H21.8969V58.7289L23.3814 58.1731Z" fill="white"/>
<path d="M26.7217 60.7643C26.5361 60.9496 26.5361 61.5053 26.5361 61.6906C26.5361 62.4316 26.7217 62.6169 26.7217 62.8021C26.7217 62.8021 26.9073 62.9874 27.0928 62.9874C27.464 62.9874 27.6495 62.6169 27.6495 61.8759C27.6495 61.6906 27.6495 61.3201 27.6495 61.1348C27.6495 60.9496 27.464 60.7643 27.0928 60.7643C26.9073 60.5791 26.7217 60.7643 26.7217 60.7643ZM26.3506 60.0233C26.5361 59.838 26.7217 59.4675 27.6495 59.4675C27.8351 59.4675 28.3918 59.4675 28.7629 60.0233C29.3196 60.5791 29.3196 61.5053 29.3196 61.8759C29.3196 62.2464 29.3196 64.2842 27.464 64.2842C27.2784 64.2842 26.7217 64.2842 26.3506 63.7284C26.3506 63.7284 26.3506 63.5432 26.165 63.5432V64.6547H26.7217V65.9515H24.3093V64.6547H24.6805V60.7643H24.3093V59.4675H26.165L26.3506 60.0233Z" fill="white"/>
<path d="M32.6597 61.3208C32.6597 61.1355 32.6597 61.1355 32.6597 60.9503C32.6597 60.765 32.2886 60.5798 32.103 60.5798C31.5463 60.5798 31.5463 61.1355 31.5463 61.3208H32.6597ZM34.1443 62.4323C34.1443 62.8028 33.9587 63.1733 33.5876 63.5438C33.2164 63.9144 32.6597 64.0996 32.103 64.0996C30.8041 64.0996 29.8762 63.5438 29.8762 61.6913C29.8762 61.506 29.8762 61.1355 30.0618 60.765C30.4329 59.6535 31.1752 59.283 32.103 59.283C32.8453 59.283 33.402 59.4682 33.7731 59.8387C34.5154 60.5798 34.3298 61.506 34.3298 61.8765H31.5463C31.5463 62.2471 31.5463 62.8028 32.103 62.8028C32.6597 62.8028 32.6597 62.4323 32.6597 62.2471H34.1443V62.4323Z" fill="white"/>
<path d="M34.701 57.7993H36.7423V62.8012H37.1134V64.098H34.701V62.8012H35.0722V59.0961H34.701V57.7993Z" fill="white"/>
<path d="M37.4845 57.7993H39.5257V62.8012H39.8969V64.098H37.4845V62.8012H37.8556V59.0961H37.4845V57.7993Z" fill="white"/>
<path d="M40.4536 59.0961V57.7993H42.3093V58.9109H40.4536V59.0961ZM42.3093 59.4666V62.8012H42.6804V64.098H40.2681V62.8012H40.6392V60.7634H40.2681V59.4666H42.3093Z" fill="white"/>
<path d="M45.835 61.3208C45.835 61.1355 45.835 61.1355 45.835 60.9503C45.835 60.765 45.4639 60.5798 45.2783 60.5798C44.7216 60.5798 44.7216 61.1355 44.7216 61.3208H45.835ZM47.5051 62.4323C47.5051 62.8028 47.3195 63.1733 46.9484 63.5438C46.5773 63.9144 46.0206 64.0996 45.4639 64.0996C44.1649 64.0996 43.2371 63.5438 43.2371 61.6913C43.2371 61.506 43.2371 61.1355 43.4226 60.765C43.7938 59.6535 44.536 59.283 45.4639 59.283C46.2061 59.283 46.7628 59.4682 47.134 59.8387C47.8762 60.5798 47.6907 61.506 47.6907 61.8765H44.9072C44.9072 62.2471 44.9072 62.8028 45.4639 62.8028C46.0206 62.8028 46.0206 62.4323 46.0206 62.2471H47.5051V62.4323Z" fill="white"/>
<path d="M49.732 60.3938C49.732 60.2086 49.9176 59.4675 50.8454 59.4675C51.031 59.4675 51.2165 59.4675 51.2165 59.4675V60.9496C51.031 60.9496 51.031 60.9496 50.8454 60.9496C50.4743 60.9496 50.2887 61.1348 50.1031 61.1348C49.9176 61.3201 49.9176 61.5053 49.9176 62.0611V62.8021H50.4743V64.0989H47.8763V62.8021H48.2475V60.7643H47.8763V59.4675H49.732V60.3938Z" fill="white"/>
</svg>
