<svg width="41" height="52" viewBox="0 0 41 52" fill="none" xmlns="http://www.w3.org/2000/svg">
<path d="M0 24.02V40.976H41V24.02H30.7148L31.4192 32.9219C31.701 35.4653 31.4192 35.7479 32.1237 35.7479H33.6735V37.0196H24.9381V35.8892C26.488 35.8892 26.6289 35.8892 26.6289 35.6066L25.6426 21.4766L19.7251 36.3131C19.5842 36.5957 19.5842 36.8783 19.1615 36.8783C19.0206 36.8783 18.8797 36.737 18.7388 36.4544L12.9622 22.8896L11.9759 33.911C11.8351 35.4653 11.6942 35.8892 12.8213 35.8892H13.8076V37.0196H8.31271V35.8892H9.43986C9.72165 35.8892 10.0034 35.8892 10.0034 35.6066L10.8488 24.1613H0" fill="white"/>
<path d="M0 0H41V23.5971H30.7148L30.433 19.2168C30.433 18.6516 30.5739 18.6516 30.9966 18.6516H31.9828V17.5212H25.3608L20.5704 29.8143L15.4983 17.5212H8.5945V18.6516C10.2852 18.6516 11.4124 18.5103 11.2715 20.6298L10.9897 23.7384H0.140893V0" fill="white"/>
<path d="M41 41.5439H0V52.0001H41V41.5439Z" fill="white"/>
<path d="M2.53613 44.0859H4.79043L5.21311 46.9119L5.91758 44.0859H8.03098V45.075H7.6083V47.901H8.03098V48.8901H6.19936V47.901H6.48115V45.075L5.63579 48.8901H4.79043L3.80417 45.075V47.901H4.08596V48.8901H2.53613V47.901H2.95881V45.075H2.53613V44.0859Z" fill="black"/>
<path d="M10.1444 46.2059C10.0035 46.2059 9.8626 46.2059 9.8626 46.3472C9.7217 46.4885 9.7217 46.9124 9.7217 47.0537C9.7217 47.195 9.7217 47.4776 9.8626 47.6189C9.8626 47.7602 10.0035 47.9015 10.2853 47.9015C10.8489 47.9015 10.8488 47.195 10.8488 47.0537C10.5671 46.9124 10.5671 46.2059 10.1444 46.2059ZM9.15813 45.4994C9.43992 45.3581 9.86259 45.2168 10.1444 45.2168C11.2715 45.2168 11.976 45.9233 11.976 47.0537C11.976 47.3363 11.976 47.6189 11.8351 47.7602C11.6942 48.3254 11.4124 48.4667 11.1306 48.608C10.8489 48.7493 10.5671 48.7493 10.2853 48.7493C10.1444 48.7493 10.0035 48.7493 9.8626 48.7493C9.58081 48.7493 9.29902 48.608 9.01724 48.3254C8.59455 47.9015 8.59456 47.195 8.59456 46.9124C8.31277 46.7711 8.31277 45.9233 9.15813 45.4994Z" fill="black"/>
<path d="M15.78 47.8982H16.0618V48.8873H14.512V46.9091C14.512 46.7678 14.512 46.7678 14.512 46.6265C14.512 46.4852 14.3711 46.4852 14.2302 46.4852C14.0893 46.4852 14.0893 46.4852 13.9484 46.6265C13.8075 46.7678 13.8075 46.9091 13.8075 47.0504V48.0395H14.0893V49.0286H12.3986V48.0395H12.6803V46.4852H12.3986V45.4961H13.8075V46.0613C13.8075 45.92 13.9484 45.92 13.9484 45.7787C14.0893 45.6374 14.3711 45.4961 14.7938 45.4961C15.2164 45.4961 15.3573 45.6374 15.4982 45.7787C15.78 46.0613 15.78 46.3439 15.78 46.4852V47.8982Z" fill="black"/>
<path d="M17.7526 44.3711V45.5015H18.3162V46.4906H17.7526V47.7623C17.7526 47.9036 17.7526 48.1862 18.0344 48.1862C18.1753 48.1862 18.1753 48.1862 18.1753 48.1862V49.034C17.8935 49.034 17.7526 49.1753 17.4708 49.1753C17.0481 49.1753 16.7663 49.034 16.6254 48.8927C16.4845 48.7514 16.4845 48.4688 16.4845 48.3275V46.6319H16.2028V45.6428H16.6254V44.795L17.7526 44.3711Z" fill="black"/>
<path d="M20.2886 46.3465C20.1478 46.4878 20.1478 46.9117 20.1478 47.053C20.1478 47.6182 20.2886 47.7595 20.2886 47.9008C20.2886 47.9008 20.4295 48.0421 20.5704 48.0421C20.8522 48.0421 20.9931 47.7595 20.9931 47.1943C20.9931 47.053 20.9931 46.7704 20.9931 46.6291C20.9931 46.4878 20.8522 46.3465 20.5704 46.3465C20.4295 46.2052 20.2886 46.3465 20.2886 46.3465ZM20.0069 45.7813C20.1478 45.64 20.2886 45.3574 20.9931 45.3574C21.134 45.3574 21.5567 45.3574 21.8385 45.7813C22.2612 46.2052 22.2612 46.9117 22.2612 47.1943C22.2612 47.4769 22.2612 49.0312 20.8522 49.0312C20.7113 49.0312 20.2886 49.0312 20.0069 48.6073C20.0069 48.6073 20.0069 48.466 19.866 48.466V49.3138H20.2886V50.3029H18.457V49.3138H18.7388V46.3465H18.457V45.3574H19.866L20.0069 45.7813Z" fill="black"/>
<path d="M24.7972 46.7711C24.7972 46.6298 24.7972 46.6298 24.7972 46.4885C24.7972 46.3472 24.5155 46.2059 24.3746 46.2059C23.9519 46.2059 23.9519 46.6298 23.9519 46.7711H24.7972ZM25.9244 47.6189C25.9244 47.9015 25.7835 48.1841 25.5017 48.4667C25.2199 48.7493 24.7972 48.8906 24.3746 48.8906C23.3883 48.8906 22.6838 48.4667 22.6838 47.0537C22.6838 46.9124 22.6838 46.6298 22.8247 46.3472C23.1065 45.4994 23.6701 45.2168 24.3746 45.2168C24.9381 45.2168 25.3608 45.3581 25.6426 45.6407C26.2062 46.2059 26.0653 46.9124 26.0653 47.195H23.9519C23.9519 47.4776 23.9519 47.9015 24.3746 47.9015C24.7972 47.9015 24.7972 47.6189 24.7972 47.4776H25.9244V47.6189Z" fill="black"/>
<path d="M26.3472 44.0859H27.897V47.901H28.1788V48.8901H26.3472V47.901H26.629V45.075H26.3472V44.0859Z" fill="black"/>
<path d="M28.4604 44.0859H30.0103V47.901H30.2921V48.8901H28.4604V47.901H28.7422V45.075H28.4604V44.0859Z" fill="black"/>
<path d="M30.7149 45.075V44.0859H32.1238V44.9337H30.7149V45.075ZM32.1238 45.3576V47.901H32.4056V48.8901H30.574V47.901H30.8558V46.3467H30.574V45.3576H32.1238Z" fill="black"/>
<path d="M34.8006 46.7711C34.8006 46.6298 34.8006 46.6298 34.8006 46.4885C34.8006 46.3472 34.5188 46.2059 34.378 46.2059C33.9553 46.2059 33.9553 46.6298 33.9553 46.7711H34.8006ZM36.0687 47.6189C36.0687 47.9015 35.9278 48.1841 35.646 48.4667C35.3642 48.7493 34.9415 48.8906 34.5188 48.8906C33.5326 48.8906 32.8281 48.4667 32.8281 47.0537C32.8281 46.9124 32.8281 46.6298 32.969 46.3472C33.2508 45.4994 33.8144 45.2168 34.5188 45.2168C35.0824 45.2168 35.5051 45.3581 35.7869 45.6407C36.3505 46.2059 36.2096 46.9124 36.2096 47.195H34.0962C34.0962 47.4776 34.0962 47.9015 34.5188 47.9015C34.9415 47.9015 34.9415 47.6189 34.9415 47.4776H36.0687V47.6189Z" fill="black"/>
<path d="M37.7595 46.0639C37.7595 45.9226 37.9004 45.3574 38.6049 45.3574C38.7458 45.3574 38.8867 45.3574 38.8867 45.3574V46.4878C38.7458 46.4878 38.7458 46.4878 38.6049 46.4878C38.3231 46.4878 38.1822 46.6291 38.0413 46.6291C37.9004 46.7704 37.9004 46.9117 37.9004 47.3356V47.9008H38.3231V48.8899H36.3506V47.9008H36.6324V46.3465H36.3506V45.3574H37.7595V46.0639Z" fill="black"/>
</svg>
